<svg width="32" height="32" viewBox="0 0 32 32" fill="none" xmlns="http://www.w3.org/2000/svg">
<rect x="0.000366211" width="32" height="32" rx="16" fill="white"/>
<path fill-rule="evenodd" clip-rule="evenodd" d="M16.0004 5C9.92525 5 5.00037 9.92488 5.00037 16C5.00037 22.0751 9.92525 27 16.0004 27C22.0755 27 27.0004 22.0751 27.0004 16C27.0004 9.92488 22.0755 5 16.0004 5ZM20.7384 13.557H17.6313V12.6668H20.7384V13.557ZM20.4645 14.3043C20.0906 14.1389 19.6705 14.0559 19.2035 14.0559C18.4177 14.0559 17.7796 14.3016 17.2863 14.7896C16.7944 15.2789 16.5481 15.9819 16.5481 16.8987C16.5481 17.876 16.82 18.5825 17.367 19.016C17.9113 19.4502 18.5412 19.6667 19.2552 19.6667C20.1196 19.6667 20.7922 19.4094 21.2724 18.8956C21.5801 18.5716 21.7539 18.2524 21.7919 17.9393H20.3604C20.2776 18.0945 20.181 18.2157 20.0713 18.3034C19.872 18.4647 19.6118 18.5457 19.2939 18.5457C18.9917 18.5457 18.7344 18.479 18.5205 18.3463C18.1673 18.1333 17.9824 17.761 17.9589 17.2309H21.8657C21.8719 16.7742 21.8567 16.423 21.8188 16.1807C21.7539 15.7662 21.6118 15.4014 21.3904 15.087C21.1475 14.7304 20.8392 14.469 20.4645 14.3043ZM13.6376 12.3333C14.522 12.3463 15.1477 12.6001 15.5168 13.0956C15.7382 13.3998 15.8493 13.7632 15.8493 14.1872C15.8493 14.6235 15.7382 14.9754 15.514 15.2408C15.3884 15.3892 15.2043 15.5253 14.9607 15.6478C15.3305 15.7812 15.6092 15.9915 15.7989 16.2794C15.9866 16.5666 16.0811 16.9164 16.0811 17.3275C16.0811 17.7515 15.9735 18.1319 15.7575 18.4682C15.621 18.6907 15.4499 18.8786 15.2443 19.031C15.0132 19.2059 14.7407 19.325 14.4254 19.3903C14.1101 19.455 13.7693 19.4863 13.4009 19.4863H10.1337V12.3333H13.6376Z" fill="black"/>
<path fill-rule="evenodd" clip-rule="evenodd" d="M11.579 13.5754H13.1574C13.5044 13.5754 13.79 13.6128 14.0149 13.687C14.2743 13.7946 14.404 14.0144 14.404 14.3486C14.404 14.648 14.3054 14.8576 14.1094 14.9761C13.9121 15.0945 13.6562 15.1537 13.3423 15.1537H11.579V13.5754ZM18.3674 15.4994C18.5654 15.298 18.8454 15.1973 19.2042 15.1973C19.5353 15.1973 19.8119 15.2919 20.0368 15.4817C20.259 15.673 20.3845 15.9507 20.4101 16.3182H17.9934C18.0445 15.9738 18.1694 15.7009 18.3674 15.4994ZM13.3644 16.3373H11.579V18.2449H13.3395C13.6541 18.2449 13.8998 18.2027 14.0743 18.119C14.3923 17.9625 14.551 17.6657 14.551 17.2261C14.551 16.8531 14.3978 16.5979 14.0895 16.4584C13.917 16.3808 13.6748 16.34 13.3644 16.3373Z" fill="black"/>
</svg>
