<svg width="96" height="96" viewBox="0 0 96 96" fill="none" xmlns="http://www.w3.org/2000/svg">
<path d="M87.8307 18.7781C83.0491 12.8797 76.9983 8.12945 70.1263 4.87905C63.2544 1.62865 55.7373 -0.0386277 48.1317 0.000679192C35.3664 0.000679192 23.1239 5.05777 14.0974 14.0595C5.071 23.0611 0 35.27 0 48.0003C0 60.7306 5.071 72.9395 14.0974 81.9412C23.1239 90.9429 35.3664 96 48.1317 96C67.3843 96 76.0865 88.3201 78.0503 80.6401C78.7068 78.3285 78.5709 75.8645 77.6641 73.6386C76.7574 71.4127 75.1317 69.5523 73.0446 68.3522C64.92 63.7826 63.4183 57.7923 65.3436 53.9139C67.2688 50.0355 72.6981 48.3459 79.0515 51.6867C81.267 52.8178 83.8103 53.1376 86.238 52.5902C88.6657 52.0428 90.8237 50.6631 92.3358 48.6915C97.303 43.2004 98.4582 32.4484 87.8307 18.7781ZM24.913 63.3602C23.3898 63.3602 21.9009 62.9098 20.6345 62.0659C19.368 61.222 18.381 60.0226 17.7981 58.6193C17.2152 57.2159 17.0627 55.6718 17.3599 54.182C17.657 52.6922 18.3905 51.3238 19.4675 50.2497C20.5445 49.1757 21.9167 48.4442 23.4106 48.1479C24.9044 47.8516 26.4528 48.0037 27.86 48.5849C29.2672 49.1662 30.47 50.1506 31.3162 51.4135C32.1624 52.6765 32.614 54.1613 32.614 55.6803C32.614 57.7171 31.8027 59.6706 30.3584 61.1108C28.9142 62.5511 26.9554 63.3602 24.913 63.3602ZM24.913 28.8005C24.913 27.2815 25.3646 25.7967 26.2108 24.5337C27.057 23.2708 28.2598 22.2864 29.667 21.7051C31.0741 21.1239 32.6226 20.9718 34.1164 21.2681C35.6103 21.5644 36.9825 22.2959 38.0595 23.3699C39.1365 24.444 39.87 25.8124 40.1671 27.3022C40.4643 28.792 40.3118 30.3361 39.7289 31.7395C39.146 33.1428 38.1589 34.3422 36.8925 35.1861C35.6261 36.03 34.1372 36.4804 32.614 36.4804C30.5716 36.4804 28.6128 35.6713 27.1685 34.231C25.7243 32.7907 24.913 30.8373 24.913 28.8005ZM44.1656 82.5601C42.6425 82.5601 41.1536 82.1097 39.8871 81.2658C38.6207 80.4219 37.6336 79.2225 37.0508 77.8191C36.4679 76.4158 36.3154 74.8716 36.6125 73.3819C36.9097 71.8921 37.6431 70.5237 38.7202 69.4496C39.7972 68.3756 41.1694 67.6441 42.6632 67.3478C44.1571 67.0514 45.7055 67.2035 47.1127 67.7848C48.5199 68.3661 49.7226 69.3504 50.5688 70.6134C51.415 71.8764 51.8667 73.3612 51.8667 74.8801C51.8667 76.917 51.0553 78.8704 49.6111 80.3107C48.1669 81.751 46.2081 82.5601 44.1656 82.5601ZM59.5678 32.6404C58.0446 32.6404 56.5557 32.19 55.2893 31.3461C54.0228 30.5023 53.0358 29.3028 52.4529 27.8995C51.87 26.4962 51.7175 24.952 52.0147 23.4622C52.3118 21.9725 53.0453 20.604 54.1223 19.53C55.1993 18.4559 56.5715 17.7245 58.0654 17.4281C59.5592 17.1318 61.1076 17.2839 62.5148 17.8652C63.922 18.4464 65.1248 19.4308 65.971 20.6938C66.8172 21.9567 67.2688 23.4416 67.2688 24.9605C67.2688 26.9974 66.4575 28.9508 65.0132 30.391C63.569 31.8313 61.6102 32.6404 59.5678 32.6404Z" fill="white"/>
<path fill-rule="evenodd" clip-rule="evenodd" d="M44.9806 32.1018C30.9672 28.2747 11.209 28.4535 1.04478 30.1508C-0.182595 30.3558 -0.375267 35.9472 0.716298 36.1429C2.72522 36.948 3.58231 38.9572 3.58231 38.9572C3.58231 38.9572 4.18216 40.7401 5.9242 47.9905C7.66623 55.241 11.8192 56.1104 11.8192 56.1104C11.8192 56.1104 16.9023 57.3569 22.7659 57.3569C28.6295 57.3569 32.1371 57.0927 35.8924 55.2312C39.6476 53.3697 41.2889 48.1855 41.2889 48.1855C41.2889 48.1855 43.1809 43.7182 44.4835 39.5031C44.892 38.1812 51.108 38.1812 51.5165 39.5031C52.8191 43.7182 54.7111 48.1855 54.7111 48.1855C54.7111 48.1855 56.3524 53.3697 60.1076 55.2312C63.8629 57.0927 67.3705 57.3569 73.2341 57.3569C79.0977 57.3569 84.1808 56.1104 84.1808 56.1104C84.1808 56.1104 88.3338 55.241 90.0758 47.9905C91.8178 40.7401 92.4177 38.9572 92.4177 38.9572C92.4177 38.9572 93.2748 36.948 95.2837 36.1429C96.3753 35.9472 96.1826 30.3558 94.9552 30.1508C84.791 28.4535 65.0328 28.2747 51.0194 32.1018C50.0684 32.3176 45.9316 32.3176 44.9806 32.1018Z" fill="url(#paint0_linear_6_219)"/>
<defs>
<linearGradient id="paint0_linear_6_219" x1="-2.85405" y1="31.4269" x2="89.3837" y2="51.689" gradientUnits="userSpaceOnUse">
<stop stop-color="#64B3F4"/>
<stop offset="0.776042" stop-color="#C2E59C"/>
</linearGradient>
</defs>
</svg>
