<svg width="72" height="74" viewBox="0 0 72 74" fill="none" xmlns="http://www.w3.org/2000/svg">
<path fill-rule="evenodd" clip-rule="evenodd" d="M34.5342 51.4899V58.5523C34.5342 59.2905 35.1657 59.8889 35.8957 59.8889C36.6476 59.8889 37.2571 59.2686 37.2571 58.5523V51.4899C38.8435 50.9293 39.9801 49.4168 39.9801 47.6389C39.9801 45.3837 38.1514 43.5556 35.8957 43.5556C33.6399 43.5556 31.8112 45.3837 31.8112 47.6389C31.8112 49.4168 32.9478 50.9293 34.5342 51.4899ZM15.4733 29.9445V20.4146C15.4733 9.1377 24.6167 0 35.8957 0C47.1517 0 56.318 9.13992 56.318 20.4146V29.9445C60.8358 29.9574 64.487 33.6203 64.487 38.1369V65.3075C64.487 69.8614 60.8189 73.5 56.2941 73.5H15.4972C10.9684 73.5 7.30435 69.8321 7.30435 65.3075V38.1369C7.30435 33.5911 10.9595 29.9573 15.4733 29.9445ZM23.6422 29.9444V20.419C23.6422 13.6363 29.1283 8.16667 35.8957 8.16667C42.6493 8.16667 48.1491 13.6522 48.1491 20.419V29.9444H23.6422Z" fill="white"/>
<path fill-rule="evenodd" clip-rule="evenodd" d="M33.7355 28.3727C23.2254 25.4783 8.40672 25.6136 0.783584 26.8973C-0.136946 27.0523 -0.28145 31.281 0.537223 31.429C2.04392 32.0379 2.68673 33.5575 2.68673 33.5575C2.68673 33.5575 3.13662 34.9058 4.44315 40.3893C5.74967 45.8728 8.86441 46.5303 8.86441 46.5303C8.86441 46.5303 12.6767 47.4731 17.0744 47.4731C21.4722 47.4731 24.1029 47.2732 26.9193 45.8654C29.7357 44.4576 30.9667 40.5367 30.9667 40.5367C30.9667 40.5367 32.3857 37.1582 33.3626 33.9703C33.669 32.9706 38.331 32.9706 38.6374 33.9703C39.6143 37.1582 41.0333 40.5367 41.0333 40.5367C41.0333 40.5367 42.2643 44.4576 45.0807 45.8654C47.8971 47.2732 50.5278 47.4731 54.9256 47.4731C59.3233 47.4731 63.1356 46.5303 63.1356 46.5303C63.1356 46.5303 66.2503 45.8728 67.5569 40.3893C68.8634 34.9058 69.3133 33.5575 69.3133 33.5575C69.3133 33.5575 69.9561 32.0379 71.4628 31.429C72.2815 31.281 72.1369 27.0523 71.2164 26.8973C63.5933 25.6136 48.7746 25.4783 38.2645 28.3727C37.5513 28.536 34.4487 28.536 33.7355 28.3727Z" fill="url(#paint0_linear_108_30)"/>
<defs>
<linearGradient id="paint0_linear_108_30" x1="-2.14054" y1="27.8624" x2="67.0906" y2="42.9439" gradientUnits="userSpaceOnUse">
<stop stop-color="#16BFFD"/>
<stop offset="0.776042" stop-color="#EF629F"/>
</linearGradient>
</defs>
</svg>
