<svg width="96" height="92" viewBox="0 0 96 92" fill="none" xmlns="http://www.w3.org/2000/svg">
<path d="M80.5239 25.1013C80.5239 24.2092 80.2253 23.4653 79.6246 22.8706L69.7214 13.0514C69.1214 12.4562 68.3714 12.1586 67.4708 12.1586C66.5697 12.1586 65.8204 12.4562 65.2203 13.0514L0.900438 76.8246C0.299387 77.4202 0 78.1645 0 79.0571C0 79.9501 0.299387 80.693 0.900438 81.2886L10.8033 91.107C11.4044 91.7026 12.1536 92 13.0544 92C13.9543 92 14.7045 91.704 15.305 91.107L79.6253 27.3333C80.2253 26.7375 80.5239 25.9945 80.5239 25.1013ZM58.1672 39.6317L52.8161 34.3254L67.4703 19.7951L72.8214 25.1013L58.1672 39.6317Z" fill="white"/>
<path fill-rule="evenodd" clip-rule="evenodd" d="M45.2607 39.2796C35.7991 36.6775 22.4587 36.7991 15.596 37.9531C14.7673 38.0925 14.6373 41.8941 15.3743 42.0271C16.7306 42.5746 17.3093 43.9406 17.3093 43.9406C17.3093 43.9406 17.7143 45.1528 18.8905 50.0825C20.0667 55.0121 22.8707 55.6032 22.8707 55.6032C22.8707 55.6032 26.3028 56.4508 30.2618 56.4508C34.2208 56.4508 36.5891 56.2711 39.1245 55.0055C41.66 53.7399 42.7682 50.215 42.7682 50.215C42.7682 50.215 44.0456 47.1777 44.9251 44.3118C45.2009 43.4131 49.3979 43.4131 49.6737 44.3118C50.5531 47.1777 51.8306 50.215 51.8306 50.215C51.8306 50.215 52.9388 53.7399 55.4742 55.0055C58.0097 56.2711 60.378 56.4508 64.337 56.4508C68.296 56.4508 71.728 55.6032 71.728 55.6032C71.728 55.6032 74.532 55.0121 75.7082 50.0825C76.8844 45.1528 77.2894 43.9406 77.2894 43.9406C77.2894 43.9406 77.8681 42.5746 79.2245 42.0271C79.9615 41.8941 79.8314 38.0925 79.0027 37.9531C72.14 36.7991 58.7996 36.6775 49.338 39.2796C48.6959 39.4263 45.9028 39.4263 45.2607 39.2796Z" fill="url(#paint0_linear_6_133)"/>
<path d="M21.6497 13.4029L23.2336 8.27214L28.4081 6.70163L23.2336 5.13075L21.6497 0L20.0653 5.13075L14.8906 6.70163L20.0653 8.27214L21.6497 13.4029Z" fill="white"/>
<path d="M35.3783 19.896L38.5471 30.1584L41.716 19.896L52.0659 16.7541L41.716 13.6125L38.5471 3.35007L35.3783 13.6125L25.0283 16.7541L35.3783 19.896Z" fill="white"/>
<path d="M90.8246 38.6391L89.2408 33.5085L87.6572 38.6391L82.4822 40.2098L87.6572 41.7805L89.2408 46.9107L90.8246 41.7805L96.0001 40.2098L90.8246 38.6391Z" fill="white"/>
<path d="M55.4452 13.4029L57.0295 8.27214L62.2038 6.70163L57.0295 5.13075L55.4452 0L53.8616 5.13075L48.6865 6.70163L53.8616 8.27214L55.4452 13.4029Z" fill="white"/>
<defs>
<linearGradient id="paint0_linear_6_133" x1="12.9636" y1="38.8208" x2="75.2807" y2="52.4149" gradientUnits="userSpaceOnUse">
<stop stop-color="#1F1C18"/>
<stop offset="0.0001" stop-color="#FC00FF"/>
<stop offset="1" stop-color="#00DBDE"/>
</linearGradient>
</defs>
</svg>
