<svg width="73" height="96" viewBox="0 0 73 96" fill="none" xmlns="http://www.w3.org/2000/svg">
<path d="M69.2838 96C71.0968 96 72.5669 94.5251 72.5669 92.7063C72.5669 90.8871 71.0968 89.4125 69.2838 89.4125H63.6583L63.6579 79.2947C63.6579 69.0588 58.0588 59.6501 47.8917 52.8011C46.6267 51.9491 45.8412 50.1096 45.8412 48.0005C45.8412 45.8914 46.6267 44.0515 47.8923 43.1992C58.0588 36.3505 63.6579 26.9422 63.6586 16.706V6.58782H69.2838C71.0968 6.58782 72.5669 5.11291 72.5669 3.29407C72.5669 1.47524 71.0968 0 69.2838 0H3.28316C1.47017 0 0 1.47491 0 3.29375C0 5.11258 1.47017 6.5875 3.28316 6.5875H8.90836V16.7057C8.90836 26.9418 14.5075 36.3502 24.675 43.1992C25.9396 44.0512 26.7251 45.8904 26.7251 48.0002C26.7251 50.1096 25.9396 51.9491 24.6746 52.8015C14.5075 59.6501 8.90836 69.0585 8.90836 79.2947V89.4125H3.28316C1.47017 89.4125 0 90.8874 0 92.7063C0 94.5254 1.47017 96 3.28316 96H69.2838Z" fill="white"/>
<path fill-rule="evenodd" clip-rule="evenodd" d="M34.0011 29.5572C23.4083 26.6643 8.47292 26.7995 0.789754 28.0825C-0.138025 28.2375 -0.283666 32.464 0.541453 32.6119C2.06001 33.2205 2.70789 34.7393 2.70789 34.7393C2.70789 34.7393 3.16132 36.087 4.47813 41.5676C5.79494 47.0483 8.93421 47.7055 8.93421 47.7055C8.93421 47.7055 12.7765 48.6478 17.2089 48.6478C21.6412 48.6478 24.2926 48.448 27.1312 47.0409C29.9699 45.6338 31.2105 41.715 31.2105 41.715C31.2105 41.715 32.6407 38.3382 33.6253 35.1519C33.9341 34.1527 38.6328 34.1527 38.9416 35.1519C39.9262 38.3382 41.3564 41.715 41.3564 41.715C41.3564 41.715 42.5971 45.6338 45.4357 47.0409C48.2743 48.448 50.9257 48.6478 55.3581 48.6478C59.7904 48.6478 63.6327 47.7055 63.6327 47.7055C63.6327 47.7055 66.772 47.0483 68.0888 41.5676C69.4056 36.087 69.859 34.7393 69.859 34.7393C69.859 34.7393 70.5069 33.2205 72.0255 32.6119C72.8506 32.464 72.705 28.2375 71.7772 28.0825C64.094 26.7995 49.1587 26.6643 38.5658 29.5572C37.847 29.7204 34.7199 29.7204 34.0011 29.5572Z" fill="url(#paint0_linear_121_57)"/>
<defs>
<linearGradient id="paint0_linear_121_57" x1="-2.1574" y1="29.0471" x2="67.5656" y2="44.3633" gradientUnits="userSpaceOnUse">
<stop stop-color="#F46464"/>
<stop offset="0.776042" stop-color="#E5B29C"/>
</linearGradient>
</defs>
</svg>
