<svg width="29" height="28" viewBox="0 0 29 28" fill="none" xmlns="http://www.w3.org/2000/svg">
<rect x="1.01929" y="0.5" width="27" height="27" rx="5.5" stroke="white"/>
<path d="M20.4194 8C20.0794 8 19.6715 8.04047 19.1502 8.10118C18.629 8.18212 18.2664 8.26307 18.0624 8.36425C17.8358 8.46543 17.5185 8.7285 17.0652 9.15346C16.6346 9.55818 16.0681 10.226 15.3882 11.0759C14.7083 11.946 14.119 12.7757 13.6204 13.5852C13.1672 14.2934 12.7139 15.0826 12.2607 15.9123C11.9434 15.5481 11.6034 15.2648 11.2635 15.0422C10.8329 14.7791 10.4023 14.6374 10.017 14.6374C9.63174 14.6374 9.17848 14.7993 8.72522 15.1029C8.24929 15.4266 8 15.7909 8 16.1754C8 16.4789 8.20397 16.8229 8.63457 17.2277C9.24647 17.8347 9.74506 18.4013 10.1077 18.9073C10.3796 19.2715 10.5609 19.5143 10.6742 19.6357C10.8102 19.7572 10.9689 19.8583 11.1502 19.9191C11.3315 19.9798 11.6488 20 12.0794 20C12.6913 20 13.0992 19.9393 13.3485 19.8179C13.5978 19.6965 13.7791 19.5346 13.9151 19.312C14.0284 19.1096 14.2323 18.7251 14.5043 18.118C15.1842 16.6003 16.1134 15.0017 17.2692 13.3828C18.425 11.7639 19.5355 10.5093 20.6007 9.61889C20.8726 9.41653 21.0313 9.25464 21.0993 9.15346C21.2352 9.07251 21.2806 8.93086 21.2806 8.76897C21.2806 8.56661 21.1899 8.38449 21.0313 8.24283C20.8953 8.08094 20.6687 8 20.4194 8Z" fill="#8FEF62"/>
</svg>
