<svg width="28" height="28" viewBox="0 0 28 28" fill="none" xmlns="http://www.w3.org/2000/svg">
<rect x="0.5" y="0.5" width="27" height="27" rx="5.5" stroke="white"/>
<path d="M18.3175 7H11.6075C11.1612 7 10.7332 7.17147 10.4177 7.47669C10.1022 7.78191 9.9249 8.19588 9.9249 8.62753V17.5138C9.9249 17.9455 10.1022 18.3595 10.4177 18.6647C10.7332 18.9699 11.1612 19.1414 11.6075 19.1414H18.3175C18.7637 19.1414 19.1917 18.9699 19.5072 18.6647C19.8228 18.3595 20 17.9455 20 17.5138V8.61451C19.9965 8.18512 19.8177 7.77449 19.5025 7.47208C19.1873 7.16967 18.7614 6.99999 18.3175 7V7ZM18.9905 17.5138C18.9905 17.6865 18.9196 17.8521 18.7934 17.9742C18.6672 18.0963 18.496 18.1648 18.3175 18.1648H11.6075C11.429 18.1648 11.2578 18.0963 11.1316 17.9742C11.0053 17.8521 10.9344 17.6865 10.9344 17.5138V8.61451C10.9344 8.44185 11.0053 8.27626 11.1316 8.15417C11.2578 8.03209 11.429 7.9635 11.6075 7.9635H18.3175C18.496 7.9635 18.6672 8.03209 18.7934 8.15417C18.9196 8.27626 18.9905 8.44185 18.9905 8.61451V17.5138Z" fill="#EDEDED"/>
<path d="M16.3758 20.0202H9.68256C9.50406 20.0202 9.33287 19.9516 9.20666 19.8296C9.08044 19.7075 9.00953 19.5419 9.00953 19.3692V10.4927C9.00953 10.3632 8.95635 10.239 8.86169 10.1474C8.76703 10.0559 8.63864 10.0044 8.50477 10.0044C8.37089 10.0044 8.24251 10.0559 8.14784 10.1474C8.05318 10.239 8 10.3632 8 10.4927V19.3725C8 19.8041 8.17727 20.2181 8.49281 20.5233C8.80835 20.8285 9.23632 21 9.68256 21H16.3758C16.5101 21 16.6389 20.9484 16.7339 20.8565C16.8289 20.7647 16.8822 20.64 16.8822 20.5101C16.8822 20.3802 16.8289 20.2556 16.7339 20.1637C16.6389 20.0718 16.5101 20.0202 16.3758 20.0202V20.0202Z" fill="#EDEDED"/>
</svg>
