<svg width="21" height="16" viewBox="0 0 21 16" fill="none" xmlns="http://www.w3.org/2000/svg">
<path d="M17.7774 1.32632C16.4389 0.71242 15.0036 0.26011 13.5029 0.00109282C13.4756 -0.00392482 13.4483 0.00858186 13.4342 0.033556C13.2496 0.361755 13.0451 0.789889 12.9019 1.12638C11.2878 0.884844 9.68202 0.884844 8.10103 1.12638C7.95781 0.782401 7.7459 0.361755 7.56049 0.033556C7.5464 0.00941813 7.5191 -0.00308855 7.4918 0.00109282C5.9919 0.259311 4.55661 0.711584 3.21731 1.32632C3.2057 1.3313 3.19577 1.33963 3.18917 1.35046C0.466727 5.41608 -0.279078 9.3818 0.08678 13.2983C0.0884218 13.3175 0.0991886 13.3358 0.11408 13.3475C1.91031 14.666 3.65025 15.4665 5.35786 15.9971C5.38519 16.0054 5.41414 15.9954 5.43155 15.9729C5.83547 15.4215 6.19557 14.8401 6.50427 14.2287C6.52252 14.1929 6.50511 14.1504 6.46788 14.1363C5.89672 13.9197 5.35289 13.6557 4.82976 13.3558C4.78837 13.3316 4.78505 13.2725 4.82312 13.2442C4.93324 13.1617 5.04335 13.0759 5.14847 12.9893C5.16748 12.9735 5.19398 12.9701 5.21632 12.9801C8.6531 14.5486 12.3738 14.5486 15.7701 12.9801C15.7925 12.9693 15.819 12.9726 15.8388 12.9885C15.9439 13.0751 16.054 13.1617 16.165 13.2442C16.203 13.2725 16.2005 13.3316 16.1592 13.3558C15.636 13.6615 15.0922 13.9197 14.5202 14.1354C14.483 14.1496 14.4664 14.1929 14.4846 14.2287C14.8 14.8393 15.16 15.4207 15.5565 15.9721C15.5731 15.9954 15.6029 16.0054 15.6302 15.9971C17.3461 15.4665 19.0861 14.666 20.8822 13.3475C20.898 13.3358 20.9079 13.3183 20.9096 13.2992C21.3474 8.77121 20.1762 4.83802 17.8047 1.3513C17.7989 1.33963 17.789 1.3313 17.7774 1.32632ZM7.01751 10.9136C5.98282 10.9136 5.13022 9.96404 5.13022 8.79789C5.13022 7.63175 5.96628 6.6822 7.01751 6.6822C8.07701 6.6822 8.92133 7.64007 8.90476 8.79789C8.90476 9.96404 8.06873 10.9136 7.01751 10.9136ZM13.9954 10.9136C12.9607 10.9136 12.1081 9.96404 12.1081 8.79789C12.1081 7.63175 12.9442 6.6822 13.9954 6.6822C15.0549 6.6822 15.8992 7.64007 15.8827 8.79789C15.8827 9.96404 15.0549 10.9136 13.9954 10.9136Z" fill="white"/>
</svg>
