<svg width="32" height="32" viewBox="0 0 32 32" fill="none" xmlns="http://www.w3.org/2000/svg">
<rect x="0.000366211" width="32" height="32" rx="16" fill="white"/>
<path d="M23.6243 8.40922C22.2221 7.75695 20.7184 7.27637 19.1463 7.00116C19.1176 6.99583 19.089 7.00912 19.0743 7.03565C18.8809 7.38437 18.6667 7.83926 18.5167 8.19677C16.8257 7.94015 15.1434 7.94015 13.4872 8.19677C13.3371 7.8313 13.1151 7.38437 12.9209 7.03565C12.9061 7.01001 12.8775 6.99672 12.8489 7.00116C11.2776 7.27552 9.77396 7.75606 8.37088 8.40922C8.35872 8.41451 8.34832 8.42335 8.3414 8.43486C5.48932 12.7546 4.708 16.9682 5.09128 21.1295C5.093 21.1498 5.10428 21.1693 5.11988 21.1817C7.00164 22.5827 8.82444 23.4331 10.6134 23.9969C10.642 24.0058 10.6723 23.9952 10.6906 23.9712C11.1137 23.3854 11.491 22.7676 11.8144 22.118C11.8335 22.08 11.8152 22.0348 11.7762 22.0198C11.1779 21.7897 10.6082 21.5091 10.0601 21.1906C10.0168 21.1649 10.0133 21.102 10.0532 21.0719C10.1685 20.9843 10.2839 20.8932 10.394 20.8011C10.4139 20.7843 10.4417 20.7808 10.4651 20.7914C14.0655 22.4579 17.9634 22.4579 21.5214 20.7914C21.5448 20.7799 21.5726 20.7834 21.5934 20.8002C21.7035 20.8923 21.8189 20.9843 21.9351 21.0719C21.975 21.102 21.9723 21.1649 21.929 21.1906C21.381 21.5153 20.8112 21.7897 20.212 22.0189C20.173 22.0339 20.1556 22.08 20.1747 22.118C20.5051 22.7667 20.8823 23.3845 21.2977 23.9704C21.315 23.9951 21.3462 24.0058 21.3749 23.9969C23.1725 23.4331 24.9953 22.5827 26.877 21.1817C26.8935 21.1693 26.9039 21.1507 26.9056 21.1304C27.3644 16.3194 26.1373 12.1404 23.6529 8.43575C23.6468 8.42335 23.6364 8.41451 23.6243 8.40922ZM12.352 18.5956C11.2681 18.5956 10.3749 17.5868 10.3749 16.3478C10.3749 15.1087 11.2508 14.0998 12.352 14.0998C13.462 14.0998 14.3465 15.1176 14.3292 16.3478C14.3292 17.5868 13.4533 18.5956 12.352 18.5956ZM19.6622 18.5956C18.5783 18.5956 17.6851 17.5868 17.6851 16.3478C17.6851 15.1087 18.5609 14.0998 19.6622 14.0998C20.7722 14.0998 21.6567 15.1176 21.6394 16.3478C21.6394 17.5868 20.7722 18.5956 19.6622 18.5956Z" fill="black"/>
</svg>
