<svg width="32" height="32" viewBox="0 0 32 32" fill="none" xmlns="http://www.w3.org/2000/svg">
<rect x="0.000366211" width="32" height="32" rx="16" fill="white"/>
<path fill-rule="evenodd" clip-rule="evenodd" d="M16.0004 6C21.5234 6 26.0004 10.5899 26.0004 16.2529C26.0004 20.7819 23.1384 24.624 19.1674 25.981C18.6604 26.082 18.4804 25.7618 18.4804 25.4888C18.4804 25.1508 18.4924 24.0468 18.4924 22.6748C18.4924 21.7188 18.1724 21.0949 17.8134 20.7769C20.0404 20.5229 22.3804 19.6558 22.3804 15.7178C22.3804 14.5978 21.9924 13.6838 21.3504 12.9658C21.4544 12.7068 21.7974 11.664 21.2524 10.252C21.2524 10.252 20.4144 9.97722 18.5054 11.3032C17.7064 11.0762 16.8504 10.962 16.0004 10.958C15.1504 10.962 14.2954 11.0762 13.4974 11.3032C11.5864 9.97722 10.7464 10.252 10.7464 10.252C10.2034 11.664 10.5464 12.7068 10.6494 12.9658C10.0104 13.6838 9.61937 14.5978 9.61937 15.7178C9.61937 19.6458 11.9544 20.5262 14.1754 20.7852C13.8894 21.0412 13.6304 21.4928 13.5404 22.1558C12.9704 22.4178 11.5224 22.8712 10.6304 21.3042C10.6304 21.3042 10.1014 20.3191 9.09737 20.2471C9.09737 20.2471 8.12237 20.2341 9.02937 20.8701C9.02937 20.8701 9.68437 21.1851 10.1394 22.3701C10.1394 22.3701 10.7264 24.2001 13.5084 23.5801C13.5134 24.4371 13.5224 25.2448 13.5224 25.4888C13.5224 25.7598 13.3384 26.0769 12.8394 25.9819C8.86536 24.6269 6.00037 20.7829 6.00037 16.2529C6.00037 10.5899 10.4784 6 16.0004 6Z" fill="black"/>
</svg>
