<svg width="20" height="18" viewBox="0 0 20 18" fill="none" xmlns="http://www.w3.org/2000/svg">
<path d="M6.27995 0.000146522C6.90994 0.0182975 7.51994 0.122506 8.11093 0.312924H8.16993C8.20993 0.330924 8.23993 0.350818 8.25993 0.368818C8.48093 0.43608 8.68993 0.511868 8.88992 0.616077L9.26992 0.777127C9.41992 0.852915 9.59992 0.994071 9.69991 1.05186C9.79991 1.10775 9.90991 1.16554 9.99991 1.23091C11.1109 0.426606 12.4599 -0.00917574 13.8499 0.000146522C14.4809 0.000146522 15.1109 0.0846122 15.7099 0.27503C19.4008 1.41185 20.7308 5.24863 19.6198 8.60226C18.9898 10.316 17.9598 11.8801 16.6108 13.1581C14.6799 14.9296 12.5609 16.5022 10.2799 17.8569L10.0299 18L9.76991 17.8475C7.48094 16.5022 5.34996 14.9296 3.40098 13.1486C2.06099 11.8706 1.03001 10.316 0.390012 8.60226C-0.739976 5.24863 0.590011 1.41185 4.32097 0.255136C4.61097 0.1604 4.90997 0.0940857 5.20996 0.0571389H5.32996C5.61096 0.0182975 5.88996 0.000146522 6.16995 0.000146522H6.27995ZM15.1899 2.99393C14.7799 2.86036 14.3299 3.06972 14.1799 3.46761C14.0399 3.8655 14.2599 4.30128 14.6799 4.44243C15.3209 4.6698 15.7499 5.26758 15.7499 5.92978V5.95915C15.7309 6.17609 15.7999 6.38546 15.9398 6.5465C16.0798 6.70755 16.2898 6.80134 16.5098 6.82124C16.9198 6.81082 17.2698 6.49914 17.2998 6.1003V5.98757C17.3298 4.66033 16.4808 3.45814 15.1899 2.99393Z" fill="white"/>
</svg>
