<svg width="32" height="32" viewBox="0 0 32 32" fill="none" xmlns="http://www.w3.org/2000/svg">
<rect x="0.000366211" width="32" height="32" rx="16" fill="white"/>
<path fill-rule="evenodd" clip-rule="evenodd" d="M16.0004 5C9.92525 5 5.00037 9.92488 5.00037 16C5.00037 22.0751 9.92525 27 16.0004 27C22.0755 27 27.0004 22.0751 27.0004 16C27.0004 9.92488 22.0755 5 16.0004 5ZM10.2811 14.1107H12.7739V21.6007H10.2811V14.1107ZM12.9381 11.7937C12.922 11.0594 12.3968 10.5 11.544 10.5C10.6912 10.5 10.1337 11.0594 10.1337 11.7937C10.1337 12.5129 10.6748 13.0883 11.5116 13.0883H11.5276C12.3968 13.0883 12.9381 12.5129 12.9381 11.7937ZM18.8939 13.9348C20.5343 13.9348 21.7641 15.0056 21.7641 17.3061L21.764 21.6007H19.2713V17.5935C19.2713 16.587 18.9105 15.9002 18.0081 15.9002C17.3194 15.9002 16.9092 16.3632 16.729 16.8104C16.6631 16.9707 16.6469 17.194 16.6469 17.4178V21.6008H14.1538C14.1538 21.6008 14.1866 14.8137 14.1538 14.1109H16.6469V15.1717C16.9778 14.6618 17.5703 13.9348 18.8939 13.9348Z" fill="black"/>
</svg>
