<svg width="20" height="20" viewBox="0 0 20 20" fill="none" xmlns="http://www.w3.org/2000/svg">
<path d="M10 20C9.56256 20.0008 9.13044 19.9048 8.73444 19.7189L1.62333 16.4167C1.14258 16.1984 0.7343 15.8471 0.446667 15.4043C0.159033 14.9615 0.00405556 14.4458 0 13.9178V6.06556C0.00502222 5.59511 0.136256 5.13463 0.38 4.73222C0.380733 4.72743 0.380733 4.72257 0.38 4.71778C0.379156 4.71262 0.379156 4.70737 0.38 4.70222C0.382578 4.69726 0.385956 4.69276 0.39 4.68889L0.398889 4.67667C0.4416 4.60972 0.487967 4.54518 0.537778 4.48333L0.564444 4.45C0.577778 4.43555 0.59 4.42 0.602222 4.40555C0.625567 4.37884 0.651633 4.35464 0.68 4.33333C0.9382 4.01531 1.26332 3.7581 1.63222 3.58L8.74 0.276656C9.13445 0.0943892 9.56378 0 9.99833 0C10.4329 0 10.8622 0.0943892 11.2567 0.276656L18.3678 3.58222C18.7364 3.76018 19.0612 4.01742 19.3189 4.33556C19.3433 4.35748 19.3657 4.38166 19.3856 4.40778L19.4189 4.44667L19.4611 4.50222C19.508 4.56031 19.5514 4.62117 19.5911 4.68444L19.5989 4.69444C19.6032 4.69806 19.6067 4.70262 19.6089 4.70778C19.6099 4.71329 19.6099 4.71893 19.6089 4.72444C19.6086 4.72815 19.6086 4.73186 19.6089 4.73556C19.8556 5.13607 19.9906 5.59527 20 6.06556V13.9355C19.9916 14.4623 19.8336 14.9758 19.5443 15.416C19.2551 15.8563 18.8467 16.2053 18.3667 16.4222L11.2556 19.7244C10.8622 19.907 10.4337 20.001 10 20ZM2.22222 6.78445V13.9266C2.2249 14.0305 2.25789 14.1312 2.31711 14.2165C2.37634 14.3019 2.45922 14.3679 2.55556 14.4066L8.88889 17.3455V9.88108L2.22222 6.78445ZM17.7778 6.78445L11.1111 9.88108V17.3433L17.4333 14.4055C17.5299 14.3684 17.6138 14.3042 17.6749 14.2206C17.7359 14.1371 17.7717 14.0378 17.7778 13.9344V6.78445ZM10 2.22222C9.88789 2.22174 9.77711 2.24603 9.67556 2.29333L3.75333 5.04445L10 7.94552L16.2456 5.04445L10.3244 2.29555C10.223 2.24768 10.1122 2.22266 10 2.22222Z" fill="white"/>
</svg>
