<svg width="28" height="28" viewBox="0 0 28 28" fill="none" xmlns="http://www.w3.org/2000/svg">
<rect x="0.5" y="0.5" width="27" height="27" rx="5.5" stroke="white"/>
<path d="M22.7885 12.3367C22.6585 12.2031 22.4844 12.1299 22.3042 12.1331C22.124 12.1363 21.9523 12.2156 21.8265 12.3537L20.9257 13.3548C20.788 11.534 20.0723 9.8185 18.8974 8.49339C17.7225 7.16828 16.1593 6.3134 14.4676 6.07085C12.7758 5.8283 11.0575 6.21268 9.59812 7.1601C8.13878 8.10753 7.02636 9.56093 6.44575 11.2787C5.86515 12.9965 5.85134 14.8752 6.40662 16.6026C6.9619 18.3299 8.05283 19.8019 9.49806 20.7738C10.9433 21.7457 12.6558 22.1589 14.3509 21.9449C16.046 21.7308 17.6216 20.9024 18.8158 19.5972C18.9399 19.4588 19.008 19.2735 19.0051 19.0816C19.0023 18.8898 18.9288 18.7069 18.8006 18.5727C18.6725 18.4385 18.5 18.3639 18.3207 18.3651C18.1414 18.3663 17.9698 18.4432 17.8432 18.5791C16.8695 19.6403 15.587 20.3148 14.2071 20.4911C12.8272 20.6675 11.4323 20.3353 10.2524 19.5494C9.07263 18.7634 8.17832 17.5705 7.717 16.1676C7.25568 14.7646 7.2549 13.2352 7.71479 11.8317C8.17468 10.4282 9.06777 9.23429 10.2468 8.44693C11.4258 7.65957 12.8203 7.32575 14.2004 7.50052C15.5805 7.67529 16.8638 8.34821 17.8385 9.40832C18.8133 10.4684 19.4214 11.8524 19.5625 13.332L18.7148 12.4248C18.652 12.3556 18.5769 12.3004 18.494 12.2625C18.4111 12.2246 18.3219 12.2047 18.2318 12.204C18.1416 12.2033 18.0522 12.2218 17.9688 12.2584C17.8853 12.295 17.8095 12.349 17.7458 12.4172C17.682 12.4855 17.6316 12.5666 17.5974 12.6559C17.5632 12.7452 17.5459 12.8409 17.5465 12.9374C17.5472 13.0339 17.5658 13.1293 17.6012 13.218C17.6366 13.3068 17.6882 13.3871 17.7529 13.4543L19.807 15.6527C19.9345 15.7892 20.1075 15.866 20.2879 15.866C20.3785 15.8649 20.4679 15.8444 20.5509 15.8058C20.634 15.7673 20.709 15.7113 20.7716 15.6413L22.8044 13.3775C22.8678 13.3084 22.9177 13.2265 22.9513 13.1365C22.9849 13.0466 23.0014 12.9504 22.9999 12.8535C22.9984 12.7567 22.979 12.6611 22.9427 12.5724C22.9064 12.4836 22.854 12.4035 22.7885 12.3367V12.3367Z" fill="white"/>
</svg>
