<svg width="57" height="64" viewBox="0 0 57 64" fill="none" xmlns="http://www.w3.org/2000/svg">
<path d="M47.3833 32.0961C30.2236 33.7827 29.531 35.6614 28.1297 63.9093C28.1224 64.0302 27.8777 64.0302 27.8703 63.9093C26.4689 35.6614 24.6452 33.7882 8.61677 32.0961C8.46108 32.0852 8.46108 31.9149 8.61677 31.9039C24.6525 30.2173 26.4689 28.3385 27.8703 0.0906436C27.8777 -0.0302145 28.1224 -0.0302145 28.1297 0.0906436C29.531 28.3385 30.231 30.2118 47.3833 31.9039C47.5389 31.9149 47.5389 32.0852 47.3833 32.0961Z" fill="white"/>
<circle cx="28" cy="32" r="27" stroke="white" stroke-width="2"/>
<circle cx="9" cy="13" r="5" fill="white"/>
<circle cx="8.625" cy="50.625" r="3.125" fill="white"/>
<circle cx="53" cy="22" r="4" fill="white"/>
</svg>
