<svg width="109" height="40" viewBox="0 0 109 40" fill="none" xmlns="http://www.w3.org/2000/svg">
<circle cx="6.0625" cy="8.125" r="3.125" fill="white"/>
<path d="M48.6475 26.7C47.7942 26.7 46.9808 26.5667 46.2075 26.3C45.4342 26.0333 44.7608 25.66 44.1875 25.18C43.6142 24.7 43.1942 24.1467 42.9275 23.52C42.7942 23.24 42.7942 22.98 42.9275 22.74C43.0742 22.5 43.3142 22.3467 43.6475 22.28C43.8875 22.2267 44.1208 22.2667 44.3475 22.4C44.5875 22.52 44.7675 22.7067 44.8875 22.96C45.0475 23.2933 45.3075 23.6 45.6675 23.88C46.0408 24.16 46.4875 24.3867 47.0075 24.56C47.5275 24.7333 48.0742 24.82 48.6475 24.82C49.2875 24.82 49.8742 24.72 50.4075 24.52C50.9542 24.32 51.3942 24.0333 51.7275 23.66C52.0608 23.2733 52.2275 22.8 52.2275 22.24C52.2275 21.5333 51.9475 20.9 51.3875 20.34C50.8408 19.78 49.9342 19.4333 48.6675 19.3C47.0142 19.14 45.7142 18.6533 44.7675 17.84C43.8208 17.0267 43.3475 16.02 43.3475 14.82C43.3475 13.94 43.5942 13.1933 44.0875 12.58C44.5808 11.9667 45.2475 11.5 46.0875 11.18C46.9408 10.86 47.8875 10.7 48.9275 10.7C49.7408 10.7 50.4475 10.8133 51.0475 11.04C51.6608 11.2667 52.1942 11.58 52.6475 11.98C53.1008 12.38 53.4942 12.8533 53.8275 13.4C54.0142 13.6933 54.0875 13.9733 54.0475 14.24C54.0208 14.4933 53.8942 14.6933 53.6675 14.84C53.4142 15 53.1408 15.0333 52.8475 14.94C52.5542 14.8467 52.3342 14.6733 52.1875 14.42C51.9742 14.0333 51.7142 13.7067 51.4075 13.44C51.1008 13.1733 50.7408 12.9667 50.3275 12.82C49.9142 12.66 49.4275 12.58 48.8675 12.58C47.8808 12.5667 47.0542 12.7533 46.3875 13.14C45.7208 13.5133 45.3875 14.0933 45.3875 14.88C45.3875 15.28 45.4875 15.6667 45.6875 16.04C45.9008 16.4 46.2808 16.7133 46.8275 16.98C47.3875 17.2467 48.1875 17.4333 49.2275 17.54C50.8142 17.7 52.0475 18.1867 52.9275 19C53.8208 19.8 54.2675 20.86 54.2675 22.18C54.2675 22.94 54.1075 23.6 53.7875 24.16C53.4808 24.72 53.0608 25.1933 52.5275 25.58C52.0075 25.9533 51.4075 26.2333 50.7275 26.42C50.0608 26.6067 49.3675 26.7 48.6475 26.7ZM58.277 31.18C57.9837 31.18 57.737 31.08 57.537 30.88C57.3504 30.6933 57.257 30.4533 57.257 30.16V21.04C57.2704 19.9867 57.517 19.04 57.997 18.2C58.477 17.36 59.1304 16.7 59.957 16.22C60.7837 15.7267 61.717 15.48 62.757 15.48C63.8104 15.48 64.7504 15.7267 65.577 16.22C66.4037 16.7 67.057 17.36 67.537 18.2C68.0304 19.04 68.277 19.9867 68.277 21.04C68.277 22.0933 68.0504 23.04 67.597 23.88C67.157 24.7067 66.5504 25.3667 65.777 25.86C65.0037 26.34 64.1304 26.58 63.157 26.58C62.3704 26.58 61.6437 26.42 60.977 26.1C60.3237 25.7667 59.7637 25.32 59.297 24.76V30.16C59.297 30.4533 59.2037 30.6933 59.017 30.88C58.8304 31.08 58.5837 31.18 58.277 31.18ZM62.757 24.78C63.437 24.78 64.0437 24.62 64.577 24.3C65.1104 23.9667 65.5304 23.52 65.837 22.96C66.157 22.3867 66.317 21.7467 66.317 21.04C66.317 20.32 66.157 19.68 65.837 19.12C65.5304 18.5467 65.1104 18.1 64.577 17.78C64.0437 17.4467 63.437 17.28 62.757 17.28C62.0904 17.28 61.4837 17.4467 60.937 17.78C60.4037 18.1 59.9837 18.5467 59.677 19.12C59.3704 19.68 59.217 20.32 59.217 21.04C59.217 21.7467 59.3704 22.3867 59.677 22.96C59.9837 23.52 60.4037 23.9667 60.937 24.3C61.4837 24.62 62.0904 24.78 62.757 24.78ZM72.5395 26.5C72.2462 26.5 71.9995 26.4067 71.7995 26.22C71.6129 26.02 71.5195 25.7733 71.5195 25.48V16.58C71.5195 16.2733 71.6129 16.0267 71.7995 15.84C71.9995 15.6533 72.2462 15.56 72.5395 15.56C72.8462 15.56 73.0929 15.6533 73.2795 15.84C73.4662 16.0267 73.5595 16.2733 73.5595 16.58V25.48C73.5595 25.7733 73.4662 26.02 73.2795 26.22C73.0929 26.4067 72.8462 26.5 72.5395 26.5ZM72.5395 13.78C72.1795 13.78 71.8662 13.6533 71.5995 13.4C71.3462 13.1333 71.2195 12.82 71.2195 12.46C71.2195 12.1 71.3462 11.7933 71.5995 11.54C71.8662 11.2733 72.1795 11.14 72.5395 11.14C72.8995 11.14 73.2062 11.2733 73.4595 11.54C73.7262 11.7933 73.8595 12.1 73.8595 12.46C73.8595 12.82 73.7262 13.1333 73.4595 13.4C73.2062 13.6533 72.8995 13.78 72.5395 13.78ZM82.3147 26.58C81.248 26.58 80.2947 26.34 79.4547 25.86C78.628 25.3667 77.9747 24.7067 77.4947 23.88C77.028 23.04 76.7947 22.0933 76.7947 21.04C76.7947 19.96 77.028 19 77.4947 18.16C77.9614 17.32 78.6014 16.6667 79.4147 16.2C80.228 15.72 81.1614 15.48 82.2147 15.48C83.0014 15.48 83.7214 15.6333 84.3747 15.94C85.028 16.2333 85.6147 16.68 86.1347 17.28C86.3214 17.4933 86.388 17.7133 86.3347 17.94C86.2814 18.1667 86.1347 18.3667 85.8947 18.54C85.708 18.6733 85.5014 18.72 85.2747 18.68C85.048 18.6267 84.8414 18.5067 84.6547 18.32C84.0014 17.6267 83.188 17.28 82.2147 17.28C81.5347 17.28 80.9347 17.44 80.4147 17.76C79.8947 18.0667 79.488 18.5 79.1947 19.06C78.9014 19.62 78.7547 20.28 78.7547 21.04C78.7547 21.76 78.9014 22.4 79.1947 22.96C79.5014 23.52 79.9214 23.9667 80.4547 24.3C80.988 24.62 81.608 24.78 82.3147 24.78C82.7814 24.78 83.188 24.7267 83.5347 24.62C83.8947 24.5 84.2214 24.32 84.5147 24.08C84.728 23.9067 84.948 23.8133 85.1747 23.8C85.4014 23.7733 85.6014 23.8333 85.7747 23.98C86.0014 24.1667 86.128 24.38 86.1547 24.62C86.1814 24.8467 86.1014 25.0533 85.9147 25.24C84.9547 26.1333 83.7547 26.58 82.3147 26.58ZM93.9264 26.58C92.9531 26.58 92.0797 26.34 91.3064 25.86C90.5331 25.3667 89.9197 24.7067 89.4664 23.88C89.0264 23.04 88.8064 22.0933 88.8064 21.04C88.8064 19.9867 89.0464 19.04 89.5264 18.2C90.0197 17.36 90.6797 16.7 91.5064 16.22C92.3464 15.7267 93.2864 15.48 94.3264 15.48C95.3664 15.48 96.2997 15.7267 97.1264 16.22C97.9531 16.7 98.6064 17.36 99.0864 18.2C99.5797 19.04 99.8264 19.9867 99.8264 21.04H99.0464C99.0464 22.0933 98.8197 23.04 98.3664 23.88C97.9264 24.7067 97.3197 25.3667 96.5464 25.86C95.7731 26.34 94.8997 26.58 93.9264 26.58ZM94.3264 24.78C95.0064 24.78 95.6131 24.62 96.1464 24.3C96.6797 23.9667 97.0997 23.52 97.4064 22.96C97.7131 22.3867 97.8664 21.7467 97.8664 21.04C97.8664 20.32 97.7131 19.68 97.4064 19.12C97.0997 18.5467 96.6797 18.1 96.1464 17.78C95.6131 17.4467 95.0064 17.28 94.3264 17.28C93.6597 17.28 93.0531 17.4467 92.5064 17.78C91.9731 18.1 91.5464 18.5467 91.2264 19.12C90.9197 19.68 90.7664 20.32 90.7664 21.04C90.7664 21.7467 90.9197 22.3867 91.2264 22.96C91.5464 23.52 91.9731 23.9667 92.5064 24.3C93.0531 24.62 93.6597 24.78 94.3264 24.78ZM98.8064 26.52C98.5131 26.52 98.2664 26.4267 98.0664 26.24C97.8797 26.04 97.7864 25.7933 97.7864 25.5V22.44L98.1664 20.32L99.8264 21.04V25.5C99.8264 25.7933 99.7264 26.04 99.5264 26.24C99.3397 26.4267 99.0997 26.52 98.8064 26.52Z" fill="white"/>
<path d="M30.0521 20.0601C19.3272 21.1142 18.8944 22.2884 18.0186 39.9433C18.014 40.0189 17.8611 40.0189 17.8564 39.9433C16.9806 22.2884 15.8407 21.1176 5.82298 20.0601C5.72567 20.0532 5.72567 19.9468 5.82298 19.9399C15.8453 18.8858 16.9806 17.7116 17.8564 0.0566523C17.8611 -0.0188841 18.014 -0.0188841 18.0186 0.0566523C18.8944 17.7116 19.3319 18.8824 30.0521 19.9399C30.1493 19.9468 30.1493 20.0532 30.0521 20.0601Z" fill="white"/>
<circle cx="17.9375" cy="20" r="16.75" stroke="white" stroke-width="1.5"/>
<circle cx="5.82812" cy="31.6406" r="1.95312" fill="white"/>
<circle cx="33.5625" cy="13.75" r="2.5" fill="white"/>
</svg>
