<svg width="560" height="555" viewBox="0 0 560 555" fill="none" xmlns="http://www.w3.org/2000/svg">
<g filter="url(#filter0_f_257_33)">
<rect x="100" y="100.962" width="360" height="353.074" rx="176.537" fill="url(#paint0_linear_257_33)"/>
</g>
<path d="M389.324 278.556C289.885 288.306 285.872 299.168 277.752 462.476C277.709 463.175 276.291 463.175 276.248 462.476C268.128 299.168 257.559 288.338 164.677 278.556C163.774 278.492 163.774 277.508 164.677 277.444C257.602 267.694 268.128 256.832 276.248 93.524C276.291 92.8253 277.709 92.8253 277.752 93.524C285.872 256.832 289.928 267.662 389.324 277.444C390.225 277.508 390.225 278.492 389.324 278.556Z" fill="white"/>
<circle cx="277" cy="278" r="158" stroke="white" stroke-width="8"/>
<circle cx="167" cy="168" r="29" fill="white"/>
<circle cx="165" cy="386" r="18" fill="white"/>
<circle cx="422" cy="220" r="23" fill="white"/>
<defs>
<filter id="filter0_f_257_33" x="0.00012207" y="0.962158" width="560" height="553.074" filterUnits="userSpaceOnUse" color-interpolation-filters="sRGB">
<feFlood flood-opacity="0" result="BackgroundImageFix"/>
<feBlend mode="normal" in="SourceGraphic" in2="BackgroundImageFix" result="shape"/>
<feGaussianBlur stdDeviation="50" result="effect1_foregroundBlur_257_33"/>
</filter>
<linearGradient id="paint0_linear_257_33" x1="280" y1="100.962" x2="280" y2="454.037" gradientUnits="userSpaceOnUse">
<stop stop-color="#F75762"/>
<stop offset="1" stop-color="#6501CD"/>
</linearGradient>
</defs>
</svg>
