<svg width="330" height="370" viewBox="0 0 330 370" fill="none" xmlns="http://www.w3.org/2000/svg">
<path d="M274.324 185.556C174.885 195.306 170.872 206.168 162.752 369.476C162.709 370.175 161.291 370.175 161.248 369.476C153.128 206.168 142.559 195.338 49.6767 185.556C48.7744 185.492 48.7744 184.508 49.6767 184.444C142.602 174.694 153.128 163.832 161.248 0.524033C161.291 -0.174678 162.709 -0.174678 162.752 0.524033C170.872 163.832 174.928 174.662 274.324 184.444C275.225 184.508 275.225 185.492 274.324 185.556Z" fill="white"/>
<circle cx="162" cy="185" r="158" stroke="white" stroke-width="8"/>
<circle cx="52" cy="75" r="29" fill="white"/>
<circle cx="50" cy="293" r="18" fill="white"/>
<circle cx="307" cy="127" r="23" fill="white"/>
</svg>
