<svg width="32" height="32" viewBox="0 0 32 32" fill="none" xmlns="http://www.w3.org/2000/svg">
<rect x="0.000366211" width="32" height="32" rx="16" fill="white"/>
<path fill-rule="evenodd" clip-rule="evenodd" d="M16.0004 5C9.92525 5 5.00037 9.92488 5.00037 16C5.00037 22.0751 9.92525 27 16.0004 27C22.0755 27 27.0004 22.0751 27.0004 16C27.0004 9.92488 22.0755 5 16.0004 5ZM15.694 14.3216L15.6709 13.9409C15.6017 12.9544 16.2095 12.0533 17.1713 11.7038C17.5252 11.5795 18.1254 11.564 18.5178 11.6727C18.6717 11.7193 18.9641 11.8747 19.1718 12.0145L19.5488 12.2709L19.9643 12.1388C20.1952 12.0689 20.5029 11.9524 20.6414 11.8747C20.7722 11.8048 20.8876 11.7659 20.8876 11.7892C20.8876 11.9213 20.6029 12.3718 20.3644 12.6204C20.0413 12.97 20.1336 13.001 20.7876 12.768C21.18 12.6359 21.1877 12.6359 21.1108 12.7835C21.0646 12.8612 20.8261 13.1331 20.5722 13.3816C20.1413 13.8089 20.1182 13.8555 20.1182 14.2128C20.1182 14.7643 19.8566 15.914 19.595 16.5432C19.1102 17.7239 18.0715 18.9434 17.0328 19.5571C15.5709 20.4193 13.6242 20.6368 11.9854 20.1319C11.4391 19.961 10.5004 19.526 10.5004 19.4484C10.5004 19.425 10.785 19.394 11.1313 19.3862C11.8546 19.3707 12.5778 19.1687 13.1933 18.8114L13.6089 18.5628L13.1318 18.3997C12.4547 18.1666 11.8469 17.6307 11.693 17.1258C11.6468 16.9626 11.6622 16.9548 12.0931 16.9548L12.5394 16.9471L12.1623 16.7684C11.716 16.5432 11.3083 16.1625 11.1082 15.7741C10.962 15.4945 10.7774 14.7876 10.8312 14.7333C10.8466 14.71 11.0082 14.7565 11.1929 14.8187C11.7237 15.0129 11.793 14.9663 11.4852 14.64C10.9081 14.0497 10.7312 13.1719 11.0082 12.3408L11.139 11.9679L11.6468 12.4728C12.6856 13.4904 13.9089 14.0963 15.3093 14.275L15.694 14.3216Z" fill="black"/>
</svg>
